<svg width="16" height="16" viewBox="0 0 16 16" fill="none" xmlns="http://www.w3.org/2000/svg">
    <path fill-rule="evenodd" clip-rule="evenodd"
          d="M8.87547 1.09653C8.61877 0.380963 7.38123 0.380962 7.12453 1.09653L6.76341 2.10323C6.67131 2.35996 6.36872 2.47721 6.11585 2.35422L5.12403 1.87188C4.41904 1.52902 3.59363 2.12874 3.70889 3.0195L3.87108 4.27299C3.91244 4.59261 3.73147 4.90605 3.44026 5.01931L2.29813 5.46351C1.48651 5.77916 1.48651 6.92084 2.29813 7.23649L3.44026 7.68069C3.73147 7.79395 3.91244 8.10739 3.87108 8.42701L3.70889 9.6805C3.59363 10.5713 4.41904 11.171 5.12403 10.8281L6.11585 10.3458C6.36872 10.2228 6.67131 10.34 6.76341 10.5968L7.12453 11.6035C7.38123 12.319 8.61877 12.319 8.87547 11.6035L9.23659 10.5968C9.32869 10.34 9.63128 10.2228 9.88415 10.3458L10.876 10.8281C11.581 11.171 12.4064 10.5713 12.2911 9.6805L12.1289 8.42701C12.0876 8.10739 12.2685 7.79395 12.5597 7.68069L13.7019 7.23649C14.5135 6.92084 14.5135 5.77916 13.7019 5.46351L12.5597 5.01931C12.2685 4.90605 12.0876 4.59261 12.1289 4.27299L12.2911 3.0195C12.4064 2.12874 11.581 1.52902 10.876 1.87188L9.88415 2.35422C9.63128 2.47721 9.32869 2.35996 9.23659 2.10323L8.87547 1.09653ZM8 8.5C9.38071 8.5 10.5 7.38071 10.5 6C10.5 4.61929 9.38071 3.5 8 3.5C6.61929 3.5 5.5 4.61929 5.5 6C5.5 7.38071 6.61929 8.5 8 8.5Z"
          fill="currentColor"/>
</svg>
